<?xml version="1.0" encoding="UTF-8"?>
<svg id="_レイヤー_1" data-name="レイヤー_1" xmlns="http://www.w3.org/2000/svg" version="1.1" viewBox="0 0 250 75">
  <!-- Generator: Adobe Illustrator 29.8.1, SVG Export Plug-In . SVG Version: 2.1.1 Build 2)  -->
  <defs>
    <style>
      .st0 {
        fill: #333;
      }

      .st1 {
        fill: #f3e8db;
      }

      .st2 {
        fill: #756556;
      }
    </style>
  </defs>
  <rect class="st2" y=".14" width="250" height="75"/>
  <g>
    <path class="st0" d="M57.04,30.68v20.45h9.12v-5.81h-5.66v-8.52h18.35v21c0,.7-.25,1.3-.75,1.8-.45.5-1.1.75-1.8.75h-30.88c-.7,0-1.3-.25-1.8-.75-.5-.5-.75-1.1-.75-1.8V25.72c0-1.2.4-2.21,1.25-3.01.85-.85,1.85-1.25,3.01-1.25h32.08v9.22h-22.16Z"/>
    <path class="st0" d="M114.34,60.36c-1.45,0-2.36-.7-2.71-2.05l-1.15-4.56h-12.23l-1.1,4.56c-.35,1.35-1.2,2.05-2.66,2.05h-11.98l10.73-38.8h22l11.28,38.75-12.18.05ZM104.27,29.88l-3.86,15.34h7.87l-4.01-15.34Z"/>
    <path class="st0" d="M163.82,60.31v-19.1l-10.78,19.05h-3.36l-10.08-17.54v17.59h-9.22V21.51h9.97c.95,0,1.65.4,2.11,1.2l10.38,19,11.28-19c.5-.8,1.2-1.2,2.16-1.2h10.33v38.8h-12.78Z"/>
    <path class="st0" d="M197.76,30.73v5.87h17.79v9.17h-17.79v5.36h18.65v9.22h-32.88V24.07c0-.7.25-1.3.75-1.8.55-.45,1.1-.7,1.8-.7h30.38v9.17h-18.7Z"/>
  </g>
  <g>
    <path class="st1" d="M53.63,27.27v20.45h9.12v-5.81h-5.66v-8.52h18.35v21c0,.7-.25,1.3-.75,1.8-.45.5-1.1.75-1.8.75h-30.88c-.7,0-1.3-.25-1.8-.75-.5-.5-.75-1.1-.75-1.8V22.31c0-1.2.4-2.21,1.25-3.01.85-.85,1.85-1.25,3.01-1.25h32.08v9.22h-22.16Z"/>
    <path class="st1" d="M110.93,56.95c-1.45,0-2.36-.7-2.71-2.06l-1.15-4.56h-12.23l-1.1,4.56c-.35,1.35-1.2,2.06-2.66,2.06h-11.98l10.73-38.8h22l11.28,38.75-12.18.05ZM100.86,26.47l-3.86,15.34h7.87l-4.01-15.34Z"/>
    <path class="st1" d="M160.41,56.89v-19.1l-10.78,19.05h-3.36l-10.08-17.54v17.59h-9.22V18.1h9.97c.95,0,1.65.4,2.11,1.2l10.38,19,11.28-19c.5-.8,1.2-1.2,2.16-1.2h10.33v38.8h-12.78Z"/>
    <path class="st1" d="M194.35,27.32v5.86h17.79v9.17h-17.79v5.36h18.65v9.22h-32.88V20.65c0-.7.25-1.3.75-1.8.55-.45,1.1-.7,1.8-.7h30.38v9.17h-18.7Z"/>
  </g>
  <polygon class="st0" points="250 52.87 250 75.14 227.73 75.14 250 52.87"/>
</svg>