<?xml version="1.0" encoding="UTF-8"?>
<svg id="_レイヤー_1" data-name="レイヤー_1" xmlns="http://www.w3.org/2000/svg" version="1.1" viewBox="0 0 250 75">
  <!-- Generator: Adobe Illustrator 29.8.1, SVG Export Plug-In . SVG Version: 2.1.1 Build 2)  -->
  <defs>
    <style>
      .st0 {
        fill: #333;
      }

      .st1 {
        fill: #f3e8db;
      }

      .st2 {
        fill: #756556;
      }
    </style>
  </defs>
  <rect class="st2" width="250" height="75"/>
  <g>
    <path class="st0" d="M74.19,59.46c-.5.5-1.15.75-1.85.75h-27.32c-.7,0-1.3-.25-1.8-.75-.5-.45-.75-1.05-.75-1.8V21.42h15.64v29.62h6.06v-7.02h10.78v13.63c0,.75-.25,1.35-.75,1.8Z"/>
    <path class="st0" d="M81.11,60.17V21.37h14.24c.95,0,1.4.45,1.4,1.4v37.39h-15.64Z"/>
    <path class="st0" d="M134.24,60.22c-.95,0-1.75-.35-2.46-1l-17.14-17.59v18.55h-9.98V21.37h8.52c.95,0,1.75.35,2.46,1l17.39,17.74v-18.75h9.92v38.85h-8.72Z"/>
    <path class="st0" d="M175.95,59.82c-1.4,0-2.36-.65-2.86-1.96l-4.86-12.43-3.91,4.86v9.52h-14.08V21.27h12.68c.95,0,1.4.45,1.4,1.4v12.78l11.18-14.19h12.08l-9.82,12.28,10.83,26.27h-12.63Z"/>
  </g>
  <g>
    <path class="st1" d="M70.78,56.05c-.5.5-1.15.75-1.85.75h-27.32c-.7,0-1.3-.25-1.8-.75-.5-.45-.75-1.05-.75-1.8V18.01h15.64v29.62h6.06v-7.02h10.78v13.63c0,.75-.25,1.35-.75,1.8Z"/>
    <path class="st1" d="M77.7,56.76V17.96h14.24c.95,0,1.4.45,1.4,1.4v37.39h-15.64Z"/>
    <path class="st1" d="M130.83,56.81c-.95,0-1.75-.35-2.46-1l-17.14-17.59v18.55h-9.98V17.96h8.52c.95,0,1.75.35,2.46,1l17.39,17.74v-18.75h9.92v38.85h-8.72Z"/>
    <path class="st1" d="M172.54,56.41c-1.4,0-2.36-.65-2.86-1.96l-4.86-12.43-3.91,4.86v9.52h-14.08V17.86h12.68c.95,0,1.4.45,1.4,1.4v12.78l11.18-14.19h12.08l-9.82,12.28,10.83,26.27h-12.63Z"/>
  </g>
  <polygon class="st0" points="250 52.73 250 75 227.73 75 250 52.73"/>
</svg>