<?xml version="1.0" encoding="UTF-8"?>
<svg id="_レイヤー_1" data-name="レイヤー_1" xmlns="http://www.w3.org/2000/svg" version="1.1" viewBox="0 0 250 75">
  <!-- Generator: Adobe Illustrator 29.8.1, SVG Export Plug-In . SVG Version: 2.1.1 Build 2)  -->
  <defs>
    <style>
      .st0 {
        fill: #333;
      }

      .st1 {
        fill: #f3e8db;
      }

      .st2 {
        fill: #756556;
      }
    </style>
  </defs>
  <rect class="st2" y=".14" width="250" height="75"/>
  <g>
    <path class="st0" d="M75.79,48.58c-1.4,1.4-3.06,2.11-5.01,2.11h-14.08v9.62h-14.24V21.51h28.32c1.96,0,3.61.7,5.01,2.06,1.4,1.4,2.06,3.06,2.06,5.01v14.99c0,1.96-.65,3.66-2.06,5.01ZM63.66,30.73h-6.97v10.68h6.97v-10.68Z"/>
    <path class="st0" d="M109.13,60.36c-1.4,0-2.36-.65-2.91-1.95l-5.01-11.93h-2.71v13.83h-14.19V21.46h27.72c2,0,3.66.7,5.06,2.05,1.4,1.4,2.11,3.06,2.11,5.01v10.83c0,2.66-1.15,4.66-3.46,6.07l6.82,14.94h-13.43ZM106.37,29.98h-7.87v7.97h7.87v-7.97Z"/>
    <path class="st0" d="M161.21,58.3c-1.35,1.35-3.06,2.05-5.01,2.05h-22.26c-2,0-3.66-.7-5.06-2.05-1.4-1.4-2.11-3.06-2.11-5.01v-24.66c0-1.96.7-3.61,2.11-5.01,1.4-1.35,3.06-2.06,5.06-2.06h22.26c1.96,0,3.66.7,5.01,2.06s2.11,3.06,2.11,5.01v24.66c0,1.96-.7,3.61-2.11,5.01ZM149.03,30.73h-7.97v20.4h7.97v-20.4Z"/>
    <path class="st0" d="M184.73,30.88v5.71h17.79v9.27h-17.79v14.44h-14.24V24.07c0-.7.25-1.3.75-1.8s1.1-.75,1.8-.75h30.33v9.37h-18.65Z"/>
    <path class="st0" d="M218.22,60.81h-7.22c-.5,0-.75-.25-.75-.7v-7.02c0-.5.25-.75.75-.75h7.22c.5,0,.75.25.75.75v7.02c0,.45-.25.7-.75.7Z"/>
  </g>
  <g>
    <path class="st1" d="M72.38,45.17c-1.4,1.4-3.06,2.11-5.01,2.11h-14.08v9.62h-14.24V18.1h28.32c1.96,0,3.61.7,5.01,2.06,1.4,1.4,2.06,3.06,2.06,5.01v14.99c0,1.96-.65,3.66-2.06,5.01ZM60.25,27.32h-6.97v10.68h6.97v-10.68Z"/>
    <path class="st1" d="M105.72,56.95c-1.4,0-2.36-.65-2.91-1.95l-5.01-11.93h-2.71v13.83h-14.19V18.05h27.72c2,0,3.66.7,5.06,2.05,1.4,1.4,2.11,3.06,2.11,5.01v10.83c0,2.66-1.15,4.66-3.46,6.07l6.82,14.94h-13.43ZM102.96,26.57h-7.87v7.97h7.87v-7.97Z"/>
    <path class="st1" d="M157.8,54.89c-1.35,1.35-3.06,2.05-5.01,2.05h-22.26c-2,0-3.66-.7-5.06-2.05-1.4-1.4-2.1-3.06-2.1-5.01v-24.66c0-1.96.7-3.61,2.1-5.01,1.4-1.35,3.06-2.06,5.06-2.06h22.26c1.96,0,3.66.7,5.01,2.06s2.11,3.06,2.11,5.01v24.66c0,1.96-.7,3.61-2.11,5.01ZM145.62,27.32h-7.97v20.4h7.97v-20.4Z"/>
    <path class="st1" d="M181.32,27.47v5.71h17.79v9.27h-17.79v14.44h-14.24V20.66c0-.7.25-1.3.75-1.8s1.1-.75,1.8-.75h30.33v9.37h-18.65Z"/>
    <path class="st1" d="M214.81,57.4h-7.22c-.5,0-.75-.25-.75-.7v-7.02c0-.5.25-.75.75-.75h7.22c.5,0,.75.25.75.75v7.02c0,.45-.25.7-.75.7Z"/>
  </g>
  <polygon class="st0" points="250 52.87 250 75.14 227.73 75.14 250 52.87"/>
</svg>