<?xml version="1.0" encoding="UTF-8"?>
<svg id="_レイヤー_1" data-name="レイヤー_1" xmlns="http://www.w3.org/2000/svg" version="1.1" viewBox="0 0 250 75">
  <!-- Generator: Adobe Illustrator 29.8.1, SVG Export Plug-In . SVG Version: 2.1.1 Build 2)  -->
  <defs>
    <style>
      .st0 {
        fill: #333;
      }

      .st1 {
        fill: #f3e8db;
      }

      .st2 {
        fill: #756556;
      }
    </style>
  </defs>
  <rect class="st2" y=".14" width="250" height="75"/>
  <g>
    <path class="st0" d="M65.11,30.78v29.52h-15.59v-29.52h-10.38v-9.22h35.89v9.22h-9.92Z"/>
    <path class="st0" d="M113.04,58.3c-1.35,1.35-3.06,2.06-5.01,2.06h-22.26c-2,0-3.66-.7-5.06-2.06-1.4-1.4-2.1-3.06-2.1-5.01v-24.66c0-1.95.7-3.61,2.1-5.01,1.4-1.35,3.06-2.06,5.06-2.06h22.26c1.95,0,3.66.7,5.01,2.06,1.4,1.4,2.11,3.06,2.11,5.01v24.66c0,1.96-.7,3.61-2.11,5.01ZM100.86,30.73h-7.97v20.4h7.97v-20.4Z"/>
    <path class="st0" d="M155.6,48.58c-1.4,1.4-3.06,2.1-5.01,2.1h-14.08v9.62h-14.24V21.51h28.32c1.96,0,3.61.7,5.01,2.06,1.4,1.4,2.05,3.06,2.05,5.01v14.99c0,1.95-.65,3.66-2.05,5.01ZM143.47,30.73h-6.97v10.68h6.97v-10.68Z"/>
  </g>
  <g>
    <path class="st1" d="M61.7,27.37v29.52h-15.59v-29.52h-10.38v-9.22h35.89v9.22h-9.92Z"/>
    <path class="st1" d="M109.63,54.89c-1.35,1.35-3.06,2.05-5.01,2.05h-22.26c-2,0-3.66-.7-5.06-2.05-1.4-1.4-2.1-3.06-2.1-5.01v-24.66c0-1.95.7-3.61,2.1-5.01,1.4-1.35,3.06-2.06,5.06-2.06h22.26c1.95,0,3.66.7,5.01,2.06,1.4,1.4,2.11,3.06,2.11,5.01v24.66c0,1.96-.7,3.61-2.11,5.01ZM97.45,27.32h-7.97v20.4h7.97v-20.4Z"/>
    <path class="st1" d="M152.19,45.17c-1.4,1.4-3.06,2.11-5.01,2.11h-14.08v9.62h-14.24V18.1h28.32c1.96,0,3.61.7,5.01,2.06,1.4,1.4,2.05,3.06,2.05,5.01v14.99c0,1.96-.65,3.66-2.05,5.01ZM140.06,27.32h-6.97v10.68h6.97v-10.68Z"/>
  </g>
  <polygon class="st0" points="250 52.87 250 75.14 227.73 75.14 250 52.87"/>
</svg>